<mxfile host="app.diagrams.net" modified="2024-05-20T13:18:50.402Z" agent="Mozilla/5.0 (Macintosh; Intel Mac OS X 10_15_7) AppleWebKit/537.36 (KHTML, like Gecko) Chrome/119.0.0.0 Safari/537.36" version="24.3.1" etag="GbW-jg6Y9abyfJla9Pnt" type="github">
  <diagram name="第 1 页" id="wYVyvaEcZD8OyRuN2Wk_">
    <mxGraphModel>
      <root>
        <mxCell id="0" />
        <mxCell id="1" parent="0" />
      </root>
    </mxGraphModel>
  </diagram>
</mxfile>
